<?xml version="1.0" standalone="no"?>
<!DOCTYPE svg PUBLIC "-//W3C//DTD SVG 20010904//EN"
 "http://www.w3.org/TR/2001/REC-SVG-20010904/DTD/svg10.dtd">
<svg version="1.0" xmlns="http://www.w3.org/2000/svg"
 width="640.000000pt" height="640.000000pt" viewBox="0 0 640.000000 640.000000"
 preserveAspectRatio="xMidYMid meet">
<metadata>
Created by potrace 1.14, written by Peter Selinger 2001-2017
</metadata>
<g transform="translate(0.000000,640.000000) scale(0.100000,-0.100000)"
fill="#000000" stroke="none">
<path d="M3387 5054 c-1 -1 -60 -4 -132 -8 -149 -6 -217 -12 -242 -20 -10 -3
-36 -8 -58 -12 -87 -13 -347 -91 -353 -106 -2 -5 -9 -8 -16 -8 -7 0 -33 -11
-57 -25 -24 -14 -51 -28 -59 -32 -21 -9 -102 -64 -118 -80 -7 -7 -17 -13 -21
-13 -14 0 -133 -127 -178 -191 -101 -142 -182 -366 -198 -544 -6 -69 -6 -251
0 -300 29 -220 108 -413 225 -548 76 -87 239 -191 360 -231 25 -7 126 -40 225
-71 99 -31 196 -61 215 -68 19 -6 40 -12 45 -13 30 -7 260 -90 320 -116 199
-87 294 -192 330 -363 14 -70 14 -204 0 -238 -9 -23 -69 -51 -159 -76 -73 -20
-269 -26 -330 -10 -17 4 -44 10 -61 12 -16 3 -43 10 -60 17 -16 6 -30 11 -30
10 0 -2 -40 13 -89 34 -60 25 -196 118 -246 169 -85 86 -96 107 -105 192 -7
64 -9 106 -16 248 -3 47 -3 47 -38 48 -39 1 -92 6 -131 12 -17 3 -79 -23 -202
-86 l-176 -90 0 -206 c1 -271 -10 -455 -32 -537 -10 -39 -7 -43 55 -78 28 -16
57 -34 65 -41 8 -7 51 -32 95 -55 44 -24 85 -46 90 -50 71 -48 391 -155 525
-175 14 -3 36 -7 50 -10 163 -35 395 -48 560 -31 165 16 224 32 368 97 35 16
65 29 68 29 3 0 17 8 32 18 15 10 56 38 92 62 94 64 187 151 254 242 37 49
118 211 131 263 5 17 9 32 10 35 0 3 13 57 28 120 15 63 30 126 34 140 3 14 7
27 8 30 24 98 35 289 22 400 -13 115 -62 256 -120 348 -62 96 -192 198 -325
254 -42 18 -79 33 -82 34 -3 0 -12 3 -20 7 -28 11 -155 45 -210 56 -93 19
-216 46 -410 90 -318 72 -430 154 -474 345 -19 81 -14 220 11 288 37 100 111
192 206 252 187 120 566 125 716 11 83 -64 90 -81 97 -245 3 -80 5 -152 5
-160 -1 -8 -1 -33 0 -55 1 -22 2 -54 2 -71 -1 -29 2 -31 36 -32 20 0 52 -1 71
-2 82 -3 269 6 276 13 4 4 9 20 10 35 1 15 5 63 8 107 4 44 9 91 11 105 2 14
7 59 10 101 3 41 8 86 10 99 3 13 7 40 10 60 7 48 12 72 31 159 20 89 12 123
-50 223 -38 63 -46 70 -106 94 -63 25 -205 71 -245 78 -11 2 -36 7 -55 11 -19
3 -42 7 -50 9 -8 1 -37 6 -65 10 -27 4 -61 10 -75 12 -46 7 -317 23 -323 18z"/>
</g>
</svg>
